# xmcd
#
# Track frame offsets:
#	150
#	12500
#	25225
#	40747
#	59860
#	72980
#	86342
#	105262
#	117538
#	127254
#	143842
#	156208
#
# Disc length: 2302 seconds
#
# Revision: 0
# Processed by: cddbd v1.5.2PL0 Copyright (c) Steve Scherf et al.
# Submitted via: EasyCDDAExtractor 16.0.1.1
#
DISCID=a908fc0c
DTITLE=Clint Black - One Emotion
DYEAR=1993
DGENRE=Country
TTITLE0=One Emotion
TTITLE1=Summer's Commin'
TTITLE2=Untanglin' My Mind
TTITLE3=Wherever You Go
TTITLE4=A Change In The Air
TTITLE5=Life Gets Away
TTITLE6=I Can Get By
TTITLE7=Hey Hot Rod
TTITLE8=You Walked By
TTITLE9=You Made Me Feel
TTITLE10=A Good Run of Bad Luck
TTITLE11=A Bad Goodbye
EXTD=
EXTT0=
EXTT1=
EXTT2=
EXTT3=
EXTT4=
EXTT5=
EXTT6=
EXTT7=
EXTT8=
EXTT9=
EXTT10=
EXTT11=
PLAYORDER=
